<mxfile host="app.diagrams.net" modified="2024-06-27T14:46:10.576Z" agent="Mozilla/5.0 (Macintosh; Intel Mac OS X 10_15_7) AppleWebKit/537.36 (KHTML, like Gecko) Chrome/125.0.0.0 Safari/537.36" etag="LvvQXCjlApsXKmGfIr0G" version="24.6.3" type="github">
  <diagram name="Page-1" id="c7488fd3-1785-93aa-aadb-54a6760d102a">
    <mxGraphModel dx="1811" dy="912" grid="1" gridSize="10" guides="1" tooltips="1" connect="1" arrows="1" fold="1" page="1" pageScale="1" pageWidth="1100" pageHeight="850" background="none" math="0" shadow="0">
      <root>
        <mxCell id="0" />
        <mxCell id="1" parent="0" />
        <mxCell id="2b4e8129b02d487f-1" value="Thesis Flow" style="swimlane;html=1;childLayout=stackLayout;horizontal=1;startSize=20;horizontalStack=0;rounded=0;shadow=0;labelBackgroundColor=none;strokeWidth=1;fontFamily=Verdana;fontSize=8;align=center;" parent="1" vertex="1">
          <mxGeometry x="43" y="46" width="2310" height="760" as="geometry" />
        </mxCell>
        <mxCell id="2b4e8129b02d487f-2" value="Student" style="swimlane;html=1;startSize=20;horizontal=0;" parent="2b4e8129b02d487f-1" vertex="1">
          <mxGeometry y="20" width="2310" height="150" as="geometry" />
        </mxCell>
        <mxCell id="2b4e8129b02d487f-18" style="edgeStyle=orthogonalEdgeStyle;rounded=0;html=1;labelBackgroundColor=none;startArrow=none;startFill=0;startSize=5;endArrow=classicThin;endFill=1;endSize=5;jettySize=auto;orthogonalLoop=1;strokeWidth=1;fontFamily=Verdana;fontSize=8" parent="2b4e8129b02d487f-2" source="2b4e8129b02d487f-5" target="2b4e8129b02d487f-6" edge="1">
          <mxGeometry relative="1" as="geometry" />
        </mxCell>
        <mxCell id="2b4e8129b02d487f-5" value="" style="ellipse;whiteSpace=wrap;html=1;rounded=0;shadow=0;labelBackgroundColor=none;strokeWidth=1;fontFamily=Verdana;fontSize=8;align=center;" parent="2b4e8129b02d487f-2" vertex="1">
          <mxGeometry x="60" y="60" width="30" height="30" as="geometry" />
        </mxCell>
        <mxCell id="2b4e8129b02d487f-6" value="Apply for Thesis" style="rounded=1;whiteSpace=wrap;html=1;shadow=0;labelBackgroundColor=none;strokeWidth=1;fontFamily=Verdana;fontSize=8;align=center;" parent="2b4e8129b02d487f-2" vertex="1">
          <mxGeometry x="120" y="48.25" width="90" height="53.5" as="geometry" />
        </mxCell>
        <mxCell id="wLagZGArtr6KGIQW5PzV-46" value="" style="edgeStyle=orthogonalEdgeStyle;rounded=0;orthogonalLoop=1;jettySize=auto;html=1;" edge="1" parent="2b4e8129b02d487f-2" source="wLagZGArtr6KGIQW5PzV-41" target="wLagZGArtr6KGIQW5PzV-45">
          <mxGeometry relative="1" as="geometry" />
        </mxCell>
        <mxCell id="wLagZGArtr6KGIQW5PzV-41" value="Meet with Advisor to discuss topic" style="whiteSpace=wrap;html=1;fontSize=8;fontFamily=Verdana;rounded=1;shadow=0;labelBackgroundColor=none;strokeWidth=1;" vertex="1" parent="2b4e8129b02d487f-2">
          <mxGeometry x="680" y="45" width="120" height="60" as="geometry" />
        </mxCell>
        <mxCell id="wLagZGArtr6KGIQW5PzV-42" value="" style="edgeStyle=orthogonalEdgeStyle;rounded=0;orthogonalLoop=1;jettySize=auto;html=1;" edge="1" parent="2b4e8129b02d487f-2" source="wLagZGArtr6KGIQW5PzV-38" target="wLagZGArtr6KGIQW5PzV-41">
          <mxGeometry relative="1" as="geometry">
            <Array as="points">
              <mxPoint x="740" y="230" />
              <mxPoint x="740" y="230" />
            </Array>
          </mxGeometry>
        </mxCell>
        <mxCell id="wLagZGArtr6KGIQW5PzV-45" value="Write Proposal&lt;div&gt;- Introduction&lt;/div&gt;&lt;div&gt;- Problem&lt;/div&gt;&lt;div&gt;- Motivation&lt;/div&gt;&lt;div&gt;- Objective&lt;/div&gt;&lt;div&gt;Timeline&lt;/div&gt;" style="whiteSpace=wrap;html=1;fontSize=8;fontFamily=Verdana;rounded=1;shadow=0;labelBackgroundColor=none;strokeWidth=1;" vertex="1" parent="2b4e8129b02d487f-2">
          <mxGeometry x="900" y="45" width="120" height="60" as="geometry" />
        </mxCell>
        <mxCell id="wLagZGArtr6KGIQW5PzV-60" value="" style="edgeStyle=orthogonalEdgeStyle;rounded=0;orthogonalLoop=1;jettySize=auto;html=1;" edge="1" parent="2b4e8129b02d487f-2" source="wLagZGArtr6KGIQW5PzV-57" target="wLagZGArtr6KGIQW5PzV-59">
          <mxGeometry relative="1" as="geometry" />
        </mxCell>
        <mxCell id="wLagZGArtr6KGIQW5PzV-57" value="Write Thesis" style="whiteSpace=wrap;html=1;fontSize=8;fontFamily=Verdana;rounded=1;shadow=0;labelBackgroundColor=none;strokeWidth=1;" vertex="1" parent="2b4e8129b02d487f-2">
          <mxGeometry x="1294" y="45" width="120" height="60" as="geometry" />
        </mxCell>
        <mxCell id="wLagZGArtr6KGIQW5PzV-59" value="Present Thesis 2 weeks before submission" style="whiteSpace=wrap;html=1;fontSize=8;fontFamily=Verdana;rounded=1;shadow=0;labelBackgroundColor=none;strokeWidth=1;" vertex="1" parent="2b4e8129b02d487f-2">
          <mxGeometry x="1547" y="45" width="120" height="60" as="geometry" />
        </mxCell>
        <mxCell id="wLagZGArtr6KGIQW5PzV-63" value="Submit Thesis&lt;div&gt;(Changes state to SUBMITTED)&lt;/div&gt;" style="whiteSpace=wrap;html=1;fontSize=8;fontFamily=Verdana;rounded=1;shadow=0;labelBackgroundColor=none;strokeWidth=1;" vertex="1" parent="2b4e8129b02d487f-2">
          <mxGeometry x="1922" y="45" width="120" height="60" as="geometry" />
        </mxCell>
        <mxCell id="2b4e8129b02d487f-3" value="Advisor" style="swimlane;html=1;startSize=20;horizontal=0;" parent="2b4e8129b02d487f-1" vertex="1">
          <mxGeometry y="170" width="2310" height="150" as="geometry" />
        </mxCell>
        <mxCell id="wLagZGArtr6KGIQW5PzV-22" value="Accept Advisor Role?" style="rhombus;whiteSpace=wrap;html=1;fontSize=8;fontFamily=Verdana;rounded=1;shadow=0;labelBackgroundColor=none;strokeWidth=1;" vertex="1" parent="2b4e8129b02d487f-3">
          <mxGeometry x="389.5" y="37.5" width="80" height="75" as="geometry" />
        </mxCell>
        <mxCell id="wLagZGArtr6KGIQW5PzV-51" value="" style="edgeStyle=orthogonalEdgeStyle;rounded=0;orthogonalLoop=1;jettySize=auto;html=1;" edge="1" parent="2b4e8129b02d487f-3" source="wLagZGArtr6KGIQW5PzV-48" target="wLagZGArtr6KGIQW5PzV-50">
          <mxGeometry relative="1" as="geometry" />
        </mxCell>
        <mxCell id="wLagZGArtr6KGIQW5PzV-48" value="Give Feedback on Proposal" style="whiteSpace=wrap;html=1;fontSize=8;fontFamily=Verdana;rounded=1;shadow=0;labelBackgroundColor=none;strokeWidth=1;" vertex="1" parent="2b4e8129b02d487f-3">
          <mxGeometry x="900" y="45" width="120" height="60" as="geometry" />
        </mxCell>
        <mxCell id="wLagZGArtr6KGIQW5PzV-56" value="Yes" style="edgeStyle=orthogonalEdgeStyle;rounded=0;orthogonalLoop=1;jettySize=auto;html=1;" edge="1" parent="2b4e8129b02d487f-3" source="wLagZGArtr6KGIQW5PzV-50" target="wLagZGArtr6KGIQW5PzV-55">
          <mxGeometry relative="1" as="geometry" />
        </mxCell>
        <mxCell id="wLagZGArtr6KGIQW5PzV-50" value="Sufficient?" style="rhombus;whiteSpace=wrap;html=1;fontSize=8;fontFamily=Verdana;rounded=1;shadow=0;labelBackgroundColor=none;strokeWidth=1;" vertex="1" parent="2b4e8129b02d487f-3">
          <mxGeometry x="1130" y="35" width="80" height="80" as="geometry" />
        </mxCell>
        <mxCell id="wLagZGArtr6KGIQW5PzV-55" value="Change Thesis State to &quot;IN PROGRESS&quot;" style="whiteSpace=wrap;html=1;fontSize=8;fontFamily=Verdana;rounded=1;shadow=0;labelBackgroundColor=none;strokeWidth=1;" vertex="1" parent="2b4e8129b02d487f-3">
          <mxGeometry x="1294" y="45" width="120" height="60" as="geometry" />
        </mxCell>
        <mxCell id="wLagZGArtr6KGIQW5PzV-65" value="Write report + Grade Suggestion" style="whiteSpace=wrap;html=1;fontSize=8;fontFamily=Verdana;rounded=1;shadow=0;labelBackgroundColor=none;strokeWidth=1;" vertex="1" parent="2b4e8129b02d487f-3">
          <mxGeometry x="1921" y="45" width="120" height="60" as="geometry" />
        </mxCell>
        <mxCell id="wLagZGArtr6KGIQW5PzV-67" value="Give Feedback" style="whiteSpace=wrap;html=1;fontSize=8;fontFamily=Verdana;rounded=1;shadow=0;labelBackgroundColor=none;strokeWidth=1;" vertex="1" parent="2b4e8129b02d487f-3">
          <mxGeometry x="1734" y="45" width="120" height="60" as="geometry" />
        </mxCell>
        <mxCell id="2b4e8129b02d487f-4" value="Professor" style="swimlane;html=1;startSize=20;horizontal=0;" parent="2b4e8129b02d487f-1" vertex="1">
          <mxGeometry y="320" width="2310" height="220" as="geometry" />
        </mxCell>
        <mxCell id="wLagZGArtr6KGIQW5PzV-16" value="" style="edgeStyle=orthogonalEdgeStyle;rounded=0;orthogonalLoop=1;jettySize=auto;html=1;" edge="1" parent="2b4e8129b02d487f-4" source="wLagZGArtr6KGIQW5PzV-13" target="wLagZGArtr6KGIQW5PzV-15">
          <mxGeometry relative="1" as="geometry" />
        </mxCell>
        <mxCell id="wLagZGArtr6KGIQW5PzV-13" value="Review Submissions" style="whiteSpace=wrap;html=1;fontSize=8;fontFamily=Verdana;rounded=1;shadow=0;labelBackgroundColor=none;strokeWidth=1;" vertex="1" parent="2b4e8129b02d487f-4">
          <mxGeometry x="117" y="47" width="94" height="55" as="geometry" />
        </mxCell>
        <mxCell id="wLagZGArtr6KGIQW5PzV-18" value="" style="edgeStyle=orthogonalEdgeStyle;rounded=0;orthogonalLoop=1;jettySize=auto;html=1;" edge="1" parent="2b4e8129b02d487f-4" source="wLagZGArtr6KGIQW5PzV-15" target="wLagZGArtr6KGIQW5PzV-17">
          <mxGeometry relative="1" as="geometry" />
        </mxCell>
        <mxCell id="wLagZGArtr6KGIQW5PzV-19" value="No" style="edgeLabel;html=1;align=center;verticalAlign=middle;resizable=0;points=[];" vertex="1" connectable="0" parent="wLagZGArtr6KGIQW5PzV-18">
          <mxGeometry x="-0.2088" y="-1" relative="1" as="geometry">
            <mxPoint as="offset" />
          </mxGeometry>
        </mxCell>
        <mxCell id="wLagZGArtr6KGIQW5PzV-21" value="Yes" style="edgeStyle=orthogonalEdgeStyle;rounded=0;orthogonalLoop=1;jettySize=auto;html=1;" edge="1" parent="2b4e8129b02d487f-4" source="wLagZGArtr6KGIQW5PzV-15" target="wLagZGArtr6KGIQW5PzV-20">
          <mxGeometry relative="1" as="geometry" />
        </mxCell>
        <mxCell id="wLagZGArtr6KGIQW5PzV-15" value="Accepted?" style="rhombus;whiteSpace=wrap;html=1;fontSize=8;fontFamily=Verdana;rounded=1;shadow=0;labelBackgroundColor=none;strokeWidth=1;" vertex="1" parent="2b4e8129b02d487f-4">
          <mxGeometry x="250" y="42.5" width="66" height="65" as="geometry" />
        </mxCell>
        <mxCell id="wLagZGArtr6KGIQW5PzV-17" value="" style="ellipse;whiteSpace=wrap;html=1;fontSize=8;fontFamily=Verdana;rounded=1;shadow=0;labelBackgroundColor=none;strokeWidth=1;" vertex="1" parent="2b4e8129b02d487f-4">
          <mxGeometry x="270" y="170" width="26.5" height="30" as="geometry" />
        </mxCell>
        <mxCell id="wLagZGArtr6KGIQW5PzV-20" value="Assign Advisor" style="whiteSpace=wrap;html=1;fontSize=8;fontFamily=Verdana;rounded=1;shadow=0;labelBackgroundColor=none;strokeWidth=1;" vertex="1" parent="2b4e8129b02d487f-4">
          <mxGeometry x="380" y="49.5" width="100" height="52.5" as="geometry" />
        </mxCell>
        <mxCell id="wLagZGArtr6KGIQW5PzV-26" value="System" style="swimlane;html=1;startSize=20;horizontal=0;" vertex="1" parent="2b4e8129b02d487f-1">
          <mxGeometry y="540" width="2310" height="220" as="geometry" />
        </mxCell>
        <mxCell id="wLagZGArtr6KGIQW5PzV-39" value="" style="edgeStyle=orthogonalEdgeStyle;rounded=0;orthogonalLoop=1;jettySize=auto;html=1;" edge="1" parent="wLagZGArtr6KGIQW5PzV-26" source="wLagZGArtr6KGIQW5PzV-36" target="wLagZGArtr6KGIQW5PzV-38">
          <mxGeometry relative="1" as="geometry" />
        </mxCell>
        <mxCell id="wLagZGArtr6KGIQW5PzV-36" value="Invite Student (Confluence...)" style="whiteSpace=wrap;html=1;fontSize=8;fontFamily=Verdana;rounded=1;shadow=0;labelBackgroundColor=none;strokeWidth=1;" vertex="1" parent="wLagZGArtr6KGIQW5PzV-26">
          <mxGeometry x="480" y="100" width="120" height="60" as="geometry" />
        </mxCell>
        <mxCell id="wLagZGArtr6KGIQW5PzV-38" value="Notify User about Thesis + Advisor" style="whiteSpace=wrap;html=1;fontSize=8;fontFamily=Verdana;rounded=1;shadow=0;labelBackgroundColor=none;strokeWidth=1;" vertex="1" parent="wLagZGArtr6KGIQW5PzV-26">
          <mxGeometry x="680" y="100" width="120" height="60" as="geometry" />
        </mxCell>
        <mxCell id="wLagZGArtr6KGIQW5PzV-61" value="Notify other Students about presentation so others can attend as well" style="whiteSpace=wrap;html=1;fontSize=8;fontFamily=Verdana;rounded=1;shadow=0;labelBackgroundColor=none;strokeWidth=1;" vertex="1" parent="wLagZGArtr6KGIQW5PzV-26">
          <mxGeometry x="1547" y="94" width="120" height="60" as="geometry" />
        </mxCell>
        <mxCell id="wLagZGArtr6KGIQW5PzV-23" value="" style="edgeStyle=orthogonalEdgeStyle;rounded=0;orthogonalLoop=1;jettySize=auto;html=1;" edge="1" parent="2b4e8129b02d487f-1" source="wLagZGArtr6KGIQW5PzV-20" target="wLagZGArtr6KGIQW5PzV-22">
          <mxGeometry relative="1" as="geometry" />
        </mxCell>
        <mxCell id="wLagZGArtr6KGIQW5PzV-24" style="edgeStyle=orthogonalEdgeStyle;rounded=0;orthogonalLoop=1;jettySize=auto;html=1;" edge="1" parent="2b4e8129b02d487f-1" source="wLagZGArtr6KGIQW5PzV-22" target="wLagZGArtr6KGIQW5PzV-20">
          <mxGeometry relative="1" as="geometry">
            <Array as="points">
              <mxPoint x="340" y="245" />
              <mxPoint x="340" y="300" />
              <mxPoint x="380" y="300" />
            </Array>
          </mxGeometry>
        </mxCell>
        <mxCell id="wLagZGArtr6KGIQW5PzV-25" value="No" style="edgeLabel;html=1;align=center;verticalAlign=middle;resizable=0;points=[];" vertex="1" connectable="0" parent="wLagZGArtr6KGIQW5PzV-24">
          <mxGeometry x="-0.1368" relative="1" as="geometry">
            <mxPoint y="-17" as="offset" />
          </mxGeometry>
        </mxCell>
        <mxCell id="wLagZGArtr6KGIQW5PzV-37" value="" style="edgeStyle=orthogonalEdgeStyle;rounded=0;orthogonalLoop=1;jettySize=auto;html=1;" edge="1" parent="2b4e8129b02d487f-1" source="wLagZGArtr6KGIQW5PzV-22" target="wLagZGArtr6KGIQW5PzV-36">
          <mxGeometry relative="1" as="geometry" />
        </mxCell>
        <mxCell id="wLagZGArtr6KGIQW5PzV-47" value="Yes" style="edgeLabel;html=1;align=center;verticalAlign=middle;resizable=0;points=[];" vertex="1" connectable="0" parent="wLagZGArtr6KGIQW5PzV-37">
          <mxGeometry x="0.0605" relative="1" as="geometry">
            <mxPoint as="offset" />
          </mxGeometry>
        </mxCell>
        <mxCell id="wLagZGArtr6KGIQW5PzV-44" style="edgeStyle=orthogonalEdgeStyle;rounded=0;orthogonalLoop=1;jettySize=auto;html=1;exitX=0.5;exitY=1;exitDx=0;exitDy=0;entryX=0.5;entryY=0;entryDx=0;entryDy=0;" edge="1" parent="2b4e8129b02d487f-1" source="2b4e8129b02d487f-6" target="wLagZGArtr6KGIQW5PzV-13">
          <mxGeometry relative="1" as="geometry" />
        </mxCell>
        <mxCell id="wLagZGArtr6KGIQW5PzV-49" value="" style="edgeStyle=orthogonalEdgeStyle;rounded=0;orthogonalLoop=1;jettySize=auto;html=1;" edge="1" parent="2b4e8129b02d487f-1" source="wLagZGArtr6KGIQW5PzV-45" target="wLagZGArtr6KGIQW5PzV-48">
          <mxGeometry relative="1" as="geometry" />
        </mxCell>
        <mxCell id="wLagZGArtr6KGIQW5PzV-52" style="edgeStyle=orthogonalEdgeStyle;rounded=0;orthogonalLoop=1;jettySize=auto;html=1;exitX=0.5;exitY=0;exitDx=0;exitDy=0;entryX=1;entryY=0.5;entryDx=0;entryDy=0;" edge="1" parent="2b4e8129b02d487f-1" source="wLagZGArtr6KGIQW5PzV-50" target="wLagZGArtr6KGIQW5PzV-45">
          <mxGeometry relative="1" as="geometry" />
        </mxCell>
        <mxCell id="wLagZGArtr6KGIQW5PzV-54" value="No" style="edgeLabel;html=1;align=center;verticalAlign=middle;resizable=0;points=[];" vertex="1" connectable="0" parent="wLagZGArtr6KGIQW5PzV-52">
          <mxGeometry x="0.4255" relative="1" as="geometry">
            <mxPoint as="offset" />
          </mxGeometry>
        </mxCell>
        <mxCell id="wLagZGArtr6KGIQW5PzV-58" value="" style="edgeStyle=orthogonalEdgeStyle;rounded=0;orthogonalLoop=1;jettySize=auto;html=1;" edge="1" parent="2b4e8129b02d487f-1" source="wLagZGArtr6KGIQW5PzV-55" target="wLagZGArtr6KGIQW5PzV-57">
          <mxGeometry relative="1" as="geometry" />
        </mxCell>
        <mxCell id="wLagZGArtr6KGIQW5PzV-62" value="" style="edgeStyle=orthogonalEdgeStyle;rounded=0;orthogonalLoop=1;jettySize=auto;html=1;" edge="1" parent="2b4e8129b02d487f-1" source="wLagZGArtr6KGIQW5PzV-59" target="wLagZGArtr6KGIQW5PzV-61">
          <mxGeometry relative="1" as="geometry" />
        </mxCell>
        <mxCell id="wLagZGArtr6KGIQW5PzV-66" value="" style="edgeStyle=orthogonalEdgeStyle;rounded=0;orthogonalLoop=1;jettySize=auto;html=1;" edge="1" parent="2b4e8129b02d487f-1" source="wLagZGArtr6KGIQW5PzV-63" target="wLagZGArtr6KGIQW5PzV-65">
          <mxGeometry relative="1" as="geometry" />
        </mxCell>
        <mxCell id="wLagZGArtr6KGIQW5PzV-69" style="edgeStyle=orthogonalEdgeStyle;rounded=0;orthogonalLoop=1;jettySize=auto;html=1;exitX=1;exitY=0.5;exitDx=0;exitDy=0;entryX=0;entryY=0.5;entryDx=0;entryDy=0;" edge="1" parent="2b4e8129b02d487f-1" source="wLagZGArtr6KGIQW5PzV-67" target="wLagZGArtr6KGIQW5PzV-63">
          <mxGeometry relative="1" as="geometry" />
        </mxCell>
        <mxCell id="wLagZGArtr6KGIQW5PzV-70" style="edgeStyle=orthogonalEdgeStyle;rounded=0;orthogonalLoop=1;jettySize=auto;html=1;exitX=1;exitY=0.5;exitDx=0;exitDy=0;entryX=0;entryY=0.5;entryDx=0;entryDy=0;" edge="1" parent="2b4e8129b02d487f-1" source="wLagZGArtr6KGIQW5PzV-59" target="wLagZGArtr6KGIQW5PzV-67">
          <mxGeometry relative="1" as="geometry" />
        </mxCell>
      </root>
    </mxGraphModel>
  </diagram>
</mxfile>
